<svg xmlns="http://www.w3.org/2000/svg" width="542.72" height="562.24" viewBox="0 0 542.72 562.24">
  <g id="shop-shop" transform="translate(-240.639 -230.88)">
    <g id="Grupo_16" data-name="Grupo 16">
      <g id="Grupo_1" data-name="Grupo 1">
        <path id="Caminho_1" data-name="Caminho 1" d="M276.48,778.76H256V551.86h20.48Z" fill="#ff9100"/>
      </g>
      <g id="Grupo_2" data-name="Grupo 2">
        <path id="Caminho_2" data-name="Caminho 2" d="M768,778.76H747.519V551.86H768Z" fill="#ff9100"/>
      </g>
      <g id="Grupo_3" data-name="Grupo 3">
        <path id="Caminho_3" data-name="Caminho 3" d="M573.44,791.24H552.96v-173.1H471.04v173.1H450.56V597.66H573.44Z" fill="#ff9100"/>
      </g>
      <g id="Grupo_4" data-name="Grupo 4">
        <path id="Caminho_4" data-name="Caminho 4" d="M542.67,704.981H522.19V685.5h20.48Z" fill="#ff9100"/>
      </g>
      <g id="Grupo_12" data-name="Grupo 12">
        <g id="Grupo_5" data-name="Grupo 5">
          <path id="Caminho_5" data-name="Caminho 5" d="M783.359,511.1H762.88V388.9H261.12V511.1H240.64V368.42H783.359Z" fill="#ff9100"/>
        </g>
        <g id="Grupo_6" data-name="Grupo 6">
          <path id="Caminho_6" data-name="Caminho 6" d="M732.9,572.6c-18.726,0-35.291-11.039-44.016-27.479-8.734,16.44-25.295,27.479-44,27.479s-35.269-11.06-44-27.5c-8.72,16.44-25.269,27.5-43.974,27.5s-35.275-11.039-44-27.479c-8.725,16.44-25.27,27.479-43.965,27.479-18.72,0-35.28-11.039-44.01-27.479-8.73,16.44-25.285,27.479-43.98,27.479-18.72,0-35.274-11.039-44-27.479C328.25,561.561,311.69,572.6,292.98,572.6c-27.07,0-50.54-22.529-52.32-50.22l-.021-21.52h542.72l-.079,20.9c-1.83,28.78-23.95,50.84-50.38,50.84Zm-29.96-51.26c1.24,17.28,14.351,30.78,29.961,30.78,15.574,0,28.66-13.5,29.9-30.78Zm-87.98,0c1.245,17.28,14.345,30.78,29.93,30.78s28.7-13.5,29.96-30.78Zm-87.97,0c1.225,17.28,14.33,30.78,29.93,30.78,15.575,0,28.665-13.5,29.91-30.78Zm-87.99,0c1.24,17.28,14.35,30.78,29.96,30.78,15.57,0,28.66-13.5,29.92-30.78Zm-87.96,0c1.225,17.28,14.33,30.78,29.93,30.78,15.58,0,28.68-13.5,29.94-30.78Zm-89.92,0v.38c1.06,16.181,15.66,30.4,31.86,30.4,15.6,0,28.705-13.5,29.95-30.78Z" fill="#ff9100"/>
        </g>
        <g id="Grupo_7" data-name="Grupo 7">
          <path id="Caminho_7" data-name="Caminho 7" d="M345.36,521.28H324.88V378.66h20.48Z" fill="#ff9100"/>
        </g>
        <g id="Grupo_8" data-name="Grupo 8">
          <path id="Caminho_8" data-name="Caminho 8" d="M434.02,521.28H413.54V378.66h20.48Z" fill="#ff9100"/>
        </g>
        <g id="Grupo_9" data-name="Grupo 9">
          <path id="Caminho_9" data-name="Caminho 9" d="M611.34,521.28H590.859V378.66H611.34Z" fill="#ff9100"/>
        </g>
        <g id="Grupo_10" data-name="Grupo 10">
          <path id="Caminho_10" data-name="Caminho 10" d="M699.99,521.28H679.51V378.66h20.48Z" fill="#ff9100"/>
        </g>
        <g id="Grupo_11" data-name="Grupo 11">
          <path id="Caminho_11" data-name="Caminho 11" d="M522.24,521.28H501.76V378.66h20.48Z" fill="#ff9100"/>
        </g>
      </g>
      <g id="Grupo_13" data-name="Grupo 13">
        <path id="Caminho_12" data-name="Caminho 12" d="M778.24,793.12H245.76V772.641H778.24Z" fill="#ff9100"/>
      </g>
      <g id="Grupo_14" data-name="Grupo 14">
        <path id="Caminho_13" data-name="Caminho 13" d="M732.16,743.019H599.04V599.481H732.16V743.019ZM619.519,722.54h92.16V619.96h-92.16V722.54Z" fill="#ff9100"/>
      </g>
      <g id="Grupo_15" data-name="Grupo 15">
        <path id="Caminho_14" data-name="Caminho 14" d="M424.96,743.58H291.84V598.9H424.96V743.58ZM312.32,723.1h92.16V619.38H312.32V723.1Z" fill="#ff9100"/>
      </g>
    </g>
    <g id="Grupo_20" data-name="Grupo 20">
      <g id="Grupo_17" data-name="Grupo 17">
        <path id="Caminho_15" data-name="Caminho 15" d="M434.02,383.66H413.54v-40.1h20.48Z" fill="#ff9100"/>
      </g>
      <g id="Grupo_18" data-name="Grupo 18">
        <path id="Caminho_16" data-name="Caminho 16" d="M611.34,396.7H590.859V343.56H611.34Z" fill="#ff9100"/>
      </g>
      <g id="Grupo_19" data-name="Grupo 19">
        <path id="Caminho_17" data-name="Caminho 17" d="M655.37,347.42H368.62a10.237,10.237,0,0,1-10.24-10.24V241.12a10.237,10.237,0,0,1,10.24-10.24H655.37a10.237,10.237,0,0,1,10.239,10.24v96.06a10.237,10.237,0,0,1-10.239,10.24ZM378.86,326.94H645.13V251.361H378.86V326.94Z" fill="#ff9100"/>
      </g>
    </g>
    <g id="Grupo_21" data-name="Grupo 21">
      <path id="Caminho_18" data-name="Caminho 18" d="M620.8,297.48H403.2V277H620.8Z" fill="#ff9100"/>
    </g>
  </g>
</svg>
